<svg width="24" height="24" viewBox="0 0 24 24" fill="none" xmlns="http://www.w3.org/2000/svg">
<path d="M13.3969 23.9994C10.8404 23.9994 8.3887 22.9001 6.58103 20.9435C4.77336 18.9869 3.75781 16.3332 3.75781 13.5661H5.68562C5.67608 15.2191 6.1202 16.838 6.9617 18.2174C7.8032 19.5968 9.00417 20.6747 10.4123 21.3144C11.8205 21.9542 13.3725 22.127 14.8715 21.8108C16.3705 21.4947 17.749 20.7039 18.8323 19.5387C19.9155 18.3735 20.6547 16.8864 20.9562 15.2659C21.2577 13.6454 21.1078 11.9645 20.5256 10.4363C19.9434 8.90812 18.9551 7.60148 17.686 6.68201C16.4168 5.76255 14.924 5.27167 13.3969 5.27164V3.18498C14.7371 3.03937 16.0907 3.1994 17.3703 3.65481C18.6499 4.11022 19.8272 4.8509 20.8261 5.82903C21.825 6.80715 22.6234 8.001 23.1698 9.33363C23.7163 10.6663 23.9986 12.1081 23.9986 13.5661C23.9986 15.0241 23.7163 16.4659 23.1698 17.7986C22.6234 19.1312 21.825 20.3251 20.8261 21.3032C19.8272 22.2813 18.6499 23.022 17.3703 23.4774C16.0907 23.9328 14.7371 24.0928 13.3969 23.9472V23.9994Z" fill="#505050" fill-opacity="0.5"/>
<path d="M1.9375 15.6525L4.9256 11.4688L7.91371 15.6525H1.9375Z" fill="#505050" fill-opacity="0.5"/>
<path d="M2.4291 6.64946L1.59049 4.77148L3.59541 3.72815C3.88458 3.51949 3.93278 3.39427 3.93278 3.38384V2.61178C3.93032 2.47427 3.87875 2.34314 3.7889 2.24588C3.69904 2.14862 3.57788 2.09279 3.45083 2.09012H2.2845C1.96641 2.09012 1.93749 2.18404 1.93749 2.43444V3.13345H0.00968695V2.43444C-0.00285399 2.1089 0.0476421 1.7841 0.157914 1.48093C0.268186 1.17776 0.435805 0.902894 0.650015 0.673981C0.864225 0.445068 1.12029 0.267151 1.40177 0.15168C1.68325 0.0362103 1.98393 -0.0142716 2.2845 0.0034661H3.45083C3.7681 0.00346335 4.08223 0.0712741 4.37523 0.203006C4.66823 0.334738 4.93432 0.527813 5.15821 0.771124C5.3821 1.01444 5.5594 1.3032 5.67993 1.62087C5.80047 1.93853 5.86186 2.27882 5.86059 2.62223V3.41517C5.83698 3.85343 5.70689 4.27715 5.48348 4.64355C5.26007 5.00994 4.95124 5.30603 4.58823 5.50182L4.49185 5.56442L2.4291 6.64946Z" fill="#505050" fill-opacity="0.5"/>
<path d="M5.57136 9.39477H0V7.03684C0.0366056 6.59844 0.175118 6.1772 0.402646 5.81235C0.630175 5.44749 0.939324 5.15089 1.30128 4.95019L1.39766 4.88759L2.47724 4.32422L3.31583 6.2022L2.28445 6.74475C2.13844 6.83111 2.01558 6.95689 1.92781 7.10988V7.34983H5.56173L5.57136 9.39477Z" fill="#505050" fill-opacity="0.5"/>
<path d="M12.5411 1.04688H10.6133V9.39349H12.5411V1.04688Z" fill="#505050" fill-opacity="0.5"/>
<path d="M11.5773 6.26387H6.75781V0.00390625H8.68562V4.17722H11.5773V6.26387Z" fill="#505050" fill-opacity="0.5"/>
</svg>
